<svg xmlns="http://www.w3.org/2000/svg" viewBox="0 0 612 792" width="100%" preserveAspectRatio="xMidYMid meet">
 <g transform="scale(1 -1)">
  <g transform="translate(0 -792)">
    <path d="M 301.928,336.854 L 265.382,373.4 L 265.382,340.244 C 265.382,338.137 263.668,336.427 261.565,336.427 C 259.458,336.427 257.748,338.137 257.748,340.244 L 257.748,411.136 C 257.569,411.102 257.389,411.067 257.214,411.033 C 255.145,410.628 253.137,411.976 252.732,414.045 C 252.328,416.113 253.675,418.121 255.744,418.526 C 256.416,418.656 257.084,418.778 257.748,418.892 L 257.748,420.003 C 257.748,422.106 259.458,423.82 261.565,423.82 C 263.668,423.82 265.382,422.106 265.382,420.003 L 265.382,419.843 C 283.96,421.236 297.08,415.106 299.385,404.799 C 301.634,394.718 292.87,384.057 273.02,378.954 L 271.07,378.511 L 307.329,342.256 C 308.818,340.763 308.818,338.347 307.329,336.854 C 305.836,335.366 303.42,335.366 301.928,336.854 Z M 174.729,344.798 C 174.729,346.901 176.439,348.615 178.546,348.615 L 196.483,348.615 L 196.479,359.769 C 190.41,361.841 184.829,366.43 180.172,372.671 C 171.347,384.481 164.927,402.956 162.575,425.133 C 157.945,468.824 170.683,514.615 193.739,525.505 C 194.655,525.936 195.571,526.307 196.483,526.616 L 196.483,536.426 L 178.543,536.426 C 176.435,536.426 174.725,538.136 174.725,540.243 C 174.725,542.346 176.435,544.06 178.543,544.06 L 223.203,544.06 C 225.306,544.06 227.02,542.346 227.02,540.243 C 227.02,538.136 225.306,536.426 223.203,536.426 L 204.117,536.426 L 204.117,527.837 C 212.84,527.677 220.924,522.237 227.295,513.71 C 227.715,513.145 228.131,512.565 228.543,511.966 L 228.543,517.6 C 228.543,519.703 230.253,521.417 232.36,521.417 C 234.464,521.417 236.177,519.703 236.177,517.6 L 236.177,491.254 C 236.177,489.147 234.464,487.437 232.36,487.437 C 230.253,487.437 228.543,489.147 228.543,491.254 L 228.543,496.071 C 226.345,501.163 223.856,505.553 221.18,509.141 C 215.744,516.412 209.935,520.062 204.117,520.191 L 204.117,366.197 L 204.114,366.189 C 206.24,366.254 208.358,366.785 210.465,367.781 C 219.413,372.003 227.177,384.065 232.2,400.406 L 210.606,400.406 C 208.499,400.406 206.789,402.116 206.789,404.223 C 206.789,406.326 208.499,408.04 210.606,408.04 L 242.037,407.746 C 243.419,407.17 244.392,405.807 244.392,404.223 C 244.392,402.116 242.678,400.406 240.575,400.406 L 240.17,400.406 C 234.731,381.339 225.596,366.479 213.729,360.876 C 210.477,359.337 207.259,358.593 204.114,358.54 L 204.117,348.615 L 223.207,348.615 C 225.31,348.615 227.024,346.901 227.024,344.798 C 227.024,342.691 225.31,340.981 223.207,340.981 L 178.546,340.981 C 176.439,340.981 174.729,342.691 174.729,344.798 Z M 321.181,344.798 C 321.181,346.901 322.891,348.615 324.998,348.615 L 342.935,348.615 L 342.931,359.769 C 336.862,361.841 331.281,366.43 326.625,372.671 C 317.799,384.481 311.379,402.956 309.028,425.133 C 304.397,468.824 317.135,514.615 340.191,525.505 C 341.107,525.936 342.023,526.307 342.935,526.616 L 342.935,536.426 L 324.995,536.426 C 322.888,536.426 321.177,538.136 321.177,540.243 C 321.177,542.346 322.888,544.06 324.995,544.06 L 369.655,544.06 C 371.758,544.06 373.472,542.346 373.472,540.243 C 373.472,538.136 371.758,536.426 369.655,536.426 L 350.569,536.426 L 350.569,527.837 C 359.292,527.677 367.376,522.237 373.747,513.71 C 374.167,513.145 374.583,512.565 374.995,511.966 L 374.995,517.6 C 374.995,519.703 376.705,521.417 378.812,521.417 C 380.916,521.417 382.63,519.703 382.63,517.6 L 382.63,491.254 C 382.63,489.147 380.916,487.437 378.812,487.437 C 376.705,487.437 374.995,489.147 374.995,491.254 L 374.995,496.071 C 372.797,501.163 370.308,505.553 367.632,509.141 C 362.196,516.412 356.387,520.062 350.569,520.191 L 350.569,366.197 L 350.566,366.189 C 352.692,366.254 354.81,366.785 356.917,367.781 C 365.865,372.003 373.629,384.065 378.652,400.406 L 357.059,400.406 C 354.951,400.406 353.241,402.116 353.241,404.223 C 353.241,406.326 354.951,408.04 357.059,408.04 L 388.489,407.746 C 389.871,407.17 390.844,405.807 390.844,404.223 C 390.844,402.116 389.13,400.406 387.027,400.406 L 386.622,400.406 C 381.183,381.339 372.048,366.479 360.181,360.876 C 356.929,359.337 353.711,358.593 350.566,358.54 L 350.569,348.615 L 369.659,348.615 C 371.762,348.615 373.476,346.901 373.476,344.798 C 373.476,342.691 371.762,340.981 369.659,340.981 L 324.998,340.981 C 322.891,340.981 321.181,342.691 321.181,344.798 Z M 196.479,367.991 L 196.483,368.002 L 196.479,518.34 C 178.6,509.244 165.618,468.836 170.168,425.939 C 172.427,404.586 178.558,387.584 186.288,377.24 C 189.574,372.839 192.998,369.762 196.479,367.991 Z M 342.931,367.991 L 342.935,368.002 L 342.931,518.34 C 325.052,509.244 312.07,468.836 316.62,425.939 C 318.88,404.586 325.01,387.584 332.74,377.24 C 336.026,372.839 339.45,369.762 342.931,367.991 Z M 291.934,403.135 C 290.82,408.109 282.204,413.693 265.382,412.208 L 265.382,385.107 C 286.155,388.779 293.167,397.597 291.934,403.135 Z" fill="red" stroke="none" fill-rule="evenodd" stroke-width="0.5" marker-start="none" marker-end="none" stroke-miterlimit="79.8403193612775"/>
  </g>
 </g>
</svg>
