<?xml version="1.0" encoding="UTF-8" standalone="no"?>
<svg
   xmlns:dc="http://purl.org/dc/elements/1.1/"
   xmlns:cc="http://creativecommons.org/ns#"
   xmlns:rdf="http://www.w3.org/1999/02/22-rdf-syntax-ns#"
   xmlns:svg="http://www.w3.org/2000/svg"
   xmlns="http://www.w3.org/2000/svg"
   xmlns:sodipodi="http://sodipodi.sourceforge.net/DTD/sodipodi-0.dtd"
   xmlns:inkscape="http://www.inkscape.org/namespaces/inkscape"
   stroke-width="0.501"
   stroke-linejoin="bevel"
   fill-rule="evenodd"
   version="1.1"
   overflow="visible"
   width="612pt"
   height="792pt"
   viewBox="0 0 612 792"
   id="svg28"
   sodipodi:docname="logo-igrig.svg"
   inkscape:version="1.0.2-2 (e86c870879, 2021-01-15)">
  <metadata
     id="metadata34">
    <rdf:RDF>
      <cc:Work
         rdf:about="">
        <dc:format>image/svg+xml</dc:format>
        <dc:type
           rdf:resource="http://purl.org/dc/dcmitype/StillImage" />
        <dc:title></dc:title>
      </cc:Work>
    </rdf:RDF>
  </metadata>
  <defs
     id="defs32" />
  <sodipodi:namedview
     pagecolor="#ffffff"
     bordercolor="#666666"
     borderopacity="1"
     objecttolerance="10"
     gridtolerance="10"
     guidetolerance="10"
     inkscape:pageopacity="0"
     inkscape:pageshadow="2"
     inkscape:window-width="2560"
     inkscape:window-height="1411"
     id="namedview30"
     showgrid="false"
     inkscape:zoom="1.1467803"
     inkscape:cx="236.6507"
     inkscape:cy="423.35921"
     inkscape:window-x="-9"
     inkscape:window-y="-9"
     inkscape:window-maximized="1"
     inkscape:current-layer="svg28" />
  <g
     id="Document"
     fill="none"
     stroke="#000000"
     font-family="'Times New Roman'"
     font-size="16px"
     transform="matrix(1,0,0,-1,-1001.2579,-399.922)"
     style="fill:#ff2a2a"
     inkscape:export-xdpi="33.296669"
     inkscape:export-ydpi="33.296669">
    <g
       id="Spread"
       transform="translate(0,-792)"
       style="fill:#ff2a2a">
      <g
         id="Layer 1"
         style="fill:#ff2a2a">
        <path
           d="m 1141.55,184.868 -36.54,36.55 v -33.16 c 0,-2.11 -1.72,-3.82 -3.82,-3.82 -2.11,0 -3.82,1.71 -3.82,3.82 v 70.89 c -0.18,-0.03 -0.36,-0.07 -0.53,-0.1 -2.07,-0.41 -4.08,0.94 -4.48,3.01 -0.41,2.07 0.94,4.08 3.01,4.48 0.67,0.13 1.34,0.25 2,0.37 v 1.11 c 0,2.1 1.71,3.82 3.82,3.82 2.1,0 3.82,-1.72 3.82,-3.82 v -0.16 c 18.58,1.39 31.7,-4.74 34,-15.05 2.25,-10.08 -6.51,-20.74 -26.36,-25.84 l -1.95,-0.44 36.25,-36.26 c 1.49,-1.49 1.49,-3.91 0,-5.4 -1.49,-1.49 -3.9,-1.49 -5.4,0 m -127.2,7.94 c 0,2.11 1.71,3.82 3.82,3.82 h 17.94 l -0.01,11.15 c -6.06,2.08 -11.65,6.67 -16.3,12.91 -8.83,11.81 -15.25,30.28 -17.6,52.46 -4.627,43.69 8.11,89.48 31.16,100.37 0.92,0.43 1.84,0.8 2.75,1.11 v 9.81 h -17.94 c -2.11,0 -3.82,1.71 -3.82,3.82 0,2.1 1.71,3.82 3.82,3.82 h 44.66 c 2.1,0 3.82,-1.72 3.82,-3.82 0,-2.11 -1.72,-3.82 -3.82,-3.82 h -19.09 v -8.59 c 8.73,-0.16 16.81,-5.6 23.18,-14.12 0.42,-0.57 0.84,-1.15 1.25,-1.75 v 5.64 c 0,2.1 1.71,3.81 3.82,3.81 2.1,0 3.81,-1.71 3.81,-3.81 v -26.35 c 0,-2.11 -1.71,-3.82 -3.81,-3.82 -2.11,0 -3.82,1.71 -3.82,3.82 v 4.82 c -2.2,5.09 -4.69,9.48 -7.36,13.07 -5.44,7.27 -11.25,10.92 -17.07,11.05 v -154 -0.01 c 2.13,0.07 4.24,0.6 6.35,1.6 8.95,4.22 16.71,16.28 21.74,32.62 h -21.6 c -2.11,0 -3.82,1.71 -3.82,3.82 0,2.1 1.71,3.82 3.82,3.82 l 31.43,-0.3 c 1.38,-0.57 2.36,-1.94 2.36,-3.52 0,-2.11 -1.72,-3.82 -3.82,-3.82 h -0.4 c -5.44,-19.07 -14.58,-33.93 -26.45,-39.53 -3.25,-1.54 -6.47,-2.28 -9.61,-2.33 v -9.93 h 19.09 c 2.11,0 3.82,-1.71 3.82,-3.82 0,-2.1 -1.71,-3.81 -3.82,-3.81 h -44.66 c -2.11,0 -3.82,1.71 -3.82,3.81 m 146.46,0 c 0,2.11 1.71,3.82 3.81,3.82 h 17.94 v 11.15 c -6.07,2.08 -11.65,6.67 -16.31,12.91 -8.83,11.81 -15.25,30.28 -17.6,52.46 -4.63,43.69 8.11,89.48 31.17,100.37 0.91,0.43 1.83,0.8 2.74,1.11 v 9.81 h -17.94 c -2.11,0 -3.82,1.71 -3.82,3.82 0,2.1 1.71,3.82 3.82,3.82 h 44.66 c 2.1,0 3.82,-1.72 3.82,-3.82 0,-2.11 -1.72,-3.82 -3.82,-3.82 h -19.09 v -8.59 c 8.73,-0.16 16.81,-5.6 23.18,-14.12 0.42,-0.57 0.84,-1.15 1.25,-1.75 v 5.64 c 0,2.1 1.71,3.81 3.82,3.81 2.1,0 3.82,-1.71 3.82,-3.81 v -26.35 c 0,-2.11 -1.72,-3.82 -3.82,-3.82 -2.11,0 -3.82,1.71 -3.82,3.82 v 4.82 c -2.2,5.09 -4.69,9.48 -7.36,13.07 -5.44,7.27 -11.25,10.92 -17.07,11.05 v -154 -0.01 c 2.13,0.07 4.25,0.6 6.35,1.6 8.95,4.22 16.71,16.28 21.74,32.62 h -21.6 c -2.1,0 -3.81,1.71 -3.81,3.82 0,2.1 1.71,3.82 3.81,3.82 l 31.43,-0.3 c 1.39,-0.57 2.36,-1.94 2.36,-3.52 0,-2.11 -1.71,-3.82 -3.82,-3.82 h -0.4 c -5.44,-19.07 -14.58,-33.93 -26.44,-39.53 -3.26,-1.54 -6.47,-2.28 -9.62,-2.33 v -9.93 h 19.09 c 2.11,0 3.82,-1.71 3.82,-3.82 0,-2.1 -1.71,-3.81 -3.82,-3.81 h -44.66 c -2.1,0 -3.81,1.71 -3.81,3.81 m -124.71,23.2 0.01,0.01 -0.01,150.34 c -17.87,-9.1 -30.86,-49.51 -26.31,-92.41 2.26,-21.35 8.39,-38.35 16.12,-48.69 3.29,-4.41 6.71,-7.48 10.19,-9.25 m 146.46,0 v 0.01 150.34 c -17.88,-9.1 -30.86,-49.51 -26.31,-92.41 2.26,-21.35 8.39,-38.35 16.12,-48.69 3.28,-4.41 6.71,-7.48 10.19,-9.25 m -51,35.14 c -1.11,4.97 -9.73,10.56 -26.55,9.07 v -27.1 c 20.77,3.67 27.78,12.49 26.55,18.03 z"
           fill="#191919"
           stroke="none"
           stroke-width="0.5"
           marker-start="none"
           marker-end="none"
           stroke-miterlimit="79.8403"
           id="path23"
           style="fill:#ff2a2a" />
      </g>
    </g>
  </g>
</svg>
